HIERARCHY
ROOT Character1_Hips
{
  OFFSET 0.00186996 15.1792 0.000213289
  CHANNELS 6 Xposition Yposition Zposition Zrotation Xrotation Yrotation
  JOINT Character1_LeftUpLeg
  {
    OFFSET 1.33984 -0.942852 0
    CHANNELS 6 Xposition Yposition Zposition Zrotation Xrotation Yrotation
    JOINT Character1_LeftLeg
    {
      OFFSET 1.03111 -5.48942 0.514163
      CHANNELS 6 Xposition Yposition Zposition Zrotation Xrotation Yrotation
      JOINT Character1_LeftFoot
      {
        OFFSET 0.584472 -7.37543 -1.61389
        CHANNELS 6 Xposition Yposition Zposition Zrotation Xrotation Yrotation
        JOINT Character1_LeftToeBase
        {
          OFFSET 0.308451 -0.815752 3.43202
          CHANNELS 6 Xposition Yposition Zposition Zrotation Xrotation Yrotation
          End Site
          {
            OFFSET 0 0 0
          }
        }
      }
    }
  }
  JOINT Character1_RightUpLeg
  {
    OFFSET -1.33984 -0.942851 0
    CHANNELS 6 Xposition Yposition Zposition Zrotation Xrotation Yrotation
    JOINT Character1_RightLeg
    {
      OFFSET -1.03111 -5.48941 0.514162
      CHANNELS 6 Xposition Yposition Zposition Zrotation Xrotation Yrotation
      JOINT Character1_RightFoot
      {
        OFFSET -0.584472 -7.37542 -1.61389
        CHANNELS 6 Xposition Yposition Zposition Zrotation Xrotation Yrotation
        JOINT Character1_RightToeBase
        {
          OFFSET -0.308452 -0.815752 3.43202
          CHANNELS 6 Xposition Yposition Zposition Zrotation Xrotation Yrotation
          End Site
          {
            OFFSET 0 0 0
          }
        }
      }
    }
  }
  JOINT Character1_Spine
  {
    OFFSET 0 1.05262 0
    CHANNELS 6 Xposition Yposition Zposition Zrotation Xrotation Yrotation
    JOINT Character1_Spine1
    {
      OFFSET 0 2.01813 0
      CHANNELS 6 Xposition Yposition Zposition Zrotation Xrotation Yrotation
      JOINT Character1_Spine2
      {
        OFFSET 0 2.01813 0
        CHANNELS 6 Xposition Yposition Zposition Zrotation Xrotation Yrotation
        JOINT Character1_LeftShoulder
        {
          OFFSET 1.05262 2.25701 0
          CHANNELS 6 Xposition Yposition Zposition Zrotation Xrotation Yrotation
          JOINT Character1_LeftArm
          {
            OFFSET 1.59242 -0.163556 -0.172858
            CHANNELS 6 Xposition Yposition Zposition Zrotation Xrotation Yrotation
            JOINT Character1_LeftForeArm
            {
              OFFSET 4.24537 -1.87801 -0.325368
              CHANNELS 6 Xposition Yposition Zposition Zrotation Xrotation Yrotation
              JOINT Character1_LeftHand
              {
                OFFSET 2.98616 -1.30581 0.326132
                CHANNELS 6 Xposition Yposition Zposition Zrotation Xrotation Yrotation
                JOINT Character1_LeftHandThumb1
                {
                  OFFSET 0.707167 -0.296377 0.777353
                  CHANNELS 6 Xposition Yposition Zposition Zrotation Xrotation Yrotation
                  JOINT Character1_LeftHandThumb2
                  {
                    OFFSET 0.248522 -0.159515 0.331579
                    CHANNELS 6 Xposition Yposition Zposition Zrotation Xrotation Yrotation
                    JOINT Character1_LeftHandThumb3
                    {
                      OFFSET 0.259195 -0.254061 0.227961
                      CHANNELS 6 Xposition Yposition Zposition Zrotation Xrotation Yrotation
                      JOINT Character1_LeftHandThumb4
                      {
                        OFFSET 0.226667 -0.258213 0.206783
                        CHANNELS 6 Xposition Yposition Zposition Zrotation Xrotation Yrotation
                        End Site
                        {
                          OFFSET 0 0 0
                        }
                      }
                    }
                  }
                }
                JOINT Character1_LeftHandIndex1
                {
                  OFFSET 1.48444 -0.354188 0.611987
                  CHANNELS 6 Xposition Yposition Zposition Zrotation Xrotation Yrotation
                  JOINT Character1_LeftHandIndex2
                  {
                    OFFSET 0.504725 -0.451988 0.0493911
                    CHANNELS 6 Xposition Yposition Zposition Zrotation Xrotation Yrotation
                    JOINT Character1_LeftHandIndex3
                    {
                      OFFSET 0.296443 -0.265512 0.0299126
                      CHANNELS 6 Xposition Yposition Zposition Zrotation Xrotation Yrotation
                      JOINT Character1_LeftHandIndex4
                      {
                        OFFSET 0.19765 -0.217277 0.0208596
                        CHANNELS 6 Xposition Yposition Zposition Zrotation Xrotation Yrotation
                        End Site
                        {
                          OFFSET 0 0 0
                        }
                      }
                    }
                  }
                }
                JOINT Character1_LeftHandMiddle1
                {
                  OFFSET 1.48537 -0.317031 0.212679
                  CHANNELS 6 Xposition Yposition Zposition Zrotation Xrotation Yrotation
                  JOINT Character1_LeftHandMiddle2
                  {
                    OFFSET 0.672059 -0.620935 0.0176345
                    CHANNELS 6 Xposition Yposition Zposition Zrotation Xrotation Yrotation
                    JOINT Character1_LeftHandMiddle3
                    {
                      OFFSET 0.264033 -0.32112 0.00884251
                      CHANNELS 6 Xposition Yposition Zposition Zrotation Xrotation Yrotation
                      JOINT Character1_LeftHandMiddle4
                      {
                        OFFSET 0.180854 -0.241264 0.00658412
                        CHANNELS 6 Xposition Yposition Zposition Zrotation Xrotation Yrotation
                        End Site
                        {
                          OFFSET 0 0 0
                        }
                      }
                    }
                  }
                }
                JOINT Character1_LeftHandRing1
                {
                  OFFSET 1.48599 -0.345214 -0.172738
                  CHANNELS 6 Xposition Yposition Zposition Zrotation Xrotation Yrotation
                  JOINT Character1_LeftHandRing2
                  {
                    OFFSET 0.522196 -0.611354 0.0123873
                    CHANNELS 6 Xposition Yposition Zposition Zrotation Xrotation Yrotation
                    JOINT Character1_LeftHandRing3
                    {
                      OFFSET 0.273491 -0.359548 0.00739135
                      CHANNELS 6 Xposition Yposition Zposition Zrotation Xrotation Yrotation
                      JOINT Character1_LeftHandRing4
                      {
                        OFFSET 0.175075 -0.230164 0.00473127
                        CHANNELS 6 Xposition Yposition Zposition Zrotation Xrotation Yrotation
                        End Site
                        {
                          OFFSET 0 0 0
                        }
                      }
                    }
                  }
                }
                JOINT Character1_LeftHandPinky1
                {
                  OFFSET 1.45006 -0.450851 -0.482263
                  CHANNELS 6 Xposition Yposition Zposition Zrotation Xrotation Yrotation
                  JOINT Character1_LeftHandPinky2
                  {
                    OFFSET 0.289756 -0.353117 -0.0298237
                    CHANNELS 6 Xposition Yposition Zposition Zrotation Xrotation Yrotation
                    JOINT Character1_LeftHandPinky3
                    {
                      OFFSET 0.271226 -0.36969 -0.0280322
                      CHANNELS 6 Xposition Yposition Zposition Zrotation Xrotation Yrotation
                      JOINT Character1_LeftHandPinky4
                      {
                        OFFSET 0.192972 -0.263027 -0.0199441
                        CHANNELS 6 Xposition Yposition Zposition Zrotation Xrotation Yrotation
                        End Site
                        {
                          OFFSET 0 0 0
                        }
                      }
                    }
                  }
                }
              }
            }
          }
        }
        JOINT Character1_RightShoulder
        {
          OFFSET -1.05263 2.257 0
          CHANNELS 6 Xposition Yposition Zposition Zrotation Xrotation Yrotation
          JOINT Character1_RightArm
          {
            OFFSET -1.59242 -0.16355 -0.172859
            CHANNELS 6 Xposition Yposition Zposition Zrotation Xrotation Yrotation
            JOINT Character1_RightForeArm
            {
              OFFSET -4.24536 -1.87802 -0.325405
              CHANNELS 6 Xposition Yposition Zposition Zrotation Xrotation Yrotation
              JOINT Character1_RightHand
              {
                OFFSET -2.98615 -1.30581 0.326124
                CHANNELS 6 Xposition Yposition Zposition Zrotation Xrotation Yrotation
                JOINT Character1_RightHandThumb1
                {
                  OFFSET -0.707167 -0.296375 0.777354
                  CHANNELS 6 Xposition Yposition Zposition Zrotation Xrotation Yrotation
                  JOINT Character1_RightHandThumb2
                  {
                    OFFSET -0.248522 -0.159517 0.33158
                    CHANNELS 6 Xposition Yposition Zposition Zrotation Xrotation Yrotation
                    JOINT Character1_RightHandThumb3
                    {
                      OFFSET -0.259195 -0.254063 0.227961
                      CHANNELS 6 Xposition Yposition Zposition Zrotation Xrotation Yrotation
                      JOINT Character1_RightHandThumb4
                      {
                        OFFSET -0.226667 -0.258211 0.206783
                        CHANNELS 6 Xposition Yposition Zposition Zrotation Xrotation Yrotation
                        End Site
                        {
                          OFFSET 0 0 0
                        }
                      }
                    }
                  }
                }
                JOINT Character1_RightHandIndex1
                {
                  OFFSET -1.48444 -0.354191 0.611987
                  CHANNELS 6 Xposition Yposition Zposition Zrotation Xrotation Yrotation
                  JOINT Character1_RightHandIndex2
                  {
                    OFFSET -0.504725 -0.451986 0.049391
                    CHANNELS 6 Xposition Yposition Zposition Zrotation Xrotation Yrotation
                    JOINT Character1_RightHandIndex3
                    {
                      OFFSET -0.296442 -0.265512 0.0299126
                      CHANNELS 6 Xposition Yposition Zposition Zrotation Xrotation Yrotation
                      JOINT Character1_RightHandIndex4
                      {
                        OFFSET -0.197651 -0.21728 0.0208598
                        CHANNELS 6 Xposition Yposition Zposition Zrotation Xrotation Yrotation
                        End Site
                        {
                          OFFSET 0 0 0
                        }
                      }
                    }
                  }
                }
                JOINT Character1_RightHandMiddle1
                {
                  OFFSET -1.48537 -0.31703 0.212679
                  CHANNELS 6 Xposition Yposition Zposition Zrotation Xrotation Yrotation
                  JOINT Character1_RightHandMiddle2
                  {
                    OFFSET -0.672061 -0.620938 0.0176345
                    CHANNELS 6 Xposition Yposition Zposition Zrotation Xrotation Yrotation
                    JOINT Character1_RightHandMiddle3
                    {
                      OFFSET -0.264031 -0.321119 0.00884259
                      CHANNELS 6 Xposition Yposition Zposition Zrotation Xrotation Yrotation
                      JOINT Character1_RightHandMiddle4
                      {
                        OFFSET -0.180854 -0.241264 0.00658409
                        CHANNELS 6 Xposition Yposition Zposition Zrotation Xrotation Yrotation
                        End Site
                        {
                          OFFSET 0 0 0
                        }
                      }
                    }
                  }
                }
                JOINT Character1_RightHandRing1
                {
                  OFFSET -1.48599 -0.345215 -0.172738
                  CHANNELS 6 Xposition Yposition Zposition Zrotation Xrotation Yrotation
                  JOINT Character1_RightHandRing2
                  {
                    OFFSET -0.522197 -0.611354 0.0123875
                    CHANNELS 6 Xposition Yposition Zposition Zrotation Xrotation Yrotation
                    JOINT Character1_RightHandRing3
                    {
                      OFFSET -0.273489 -0.359549 0.00739124
                      CHANNELS 6 Xposition Yposition Zposition Zrotation Xrotation Yrotation
                      JOINT Character1_RightHandRing4
                      {
                        OFFSET -0.175076 -0.230165 0.00473138
                        CHANNELS 6 Xposition Yposition Zposition Zrotation Xrotation Yrotation
                        End Site
                        {
                          OFFSET 0 0 0
                        }
                      }
                    }
                  }
                }
                JOINT Character1_RightHandPinky1
                {
                  OFFSET -1.45006 -0.450851 -0.482263
                  CHANNELS 6 Xposition Yposition Zposition Zrotation Xrotation Yrotation
                  JOINT Character1_RightHandPinky2
                  {
                    OFFSET -0.289757 -0.35312 -0.0298238
                    CHANNELS 6 Xposition Yposition Zposition Zrotation Xrotation Yrotation
                    JOINT Character1_RightHandPinky3
                    {
                      OFFSET -0.271225 -0.36969 -0.028032
                      CHANNELS 6 Xposition Yposition Zposition Zrotation Xrotation Yrotation
                      JOINT Character1_RightHandPinky4
                      {
                        OFFSET -0.192971 -0.263025 -0.0199442
                        CHANNELS 6 Xposition Yposition Zposition Zrotation Xrotation Yrotation
                        End Site
                        {
                          OFFSET 0 0 0
                        }
                      }
                    }
                  }
                }
              }
            }
          }
        }
        JOINT Character1_Neck
        {
          OFFSET 0 2.01813 0
          CHANNELS 6 Xposition Yposition Zposition Zrotation Xrotation Yrotation
          JOINT Character1_Head
          {
            OFFSET 0 3.0075 0
            CHANNELS 6 Xposition Yposition Zposition Zrotation Xrotation Yrotation
            End Site
            {
              OFFSET 0 0 0
            }
          }
        }
      }
    }
  }
}
MOTION
Frames:	2
Frame Time:	0.0166667
0.00186996 15.1792 0.000213289 -0.113621 0.0129613 1.28513e-005 1.33984 -0.942852 3.18206e-010 -0.0794357 6.89254 0.875625 1.03111 -5.48942 0.514163 0.0022643 -12.1075 -1.28804 0.584472 -7.37543 -1.61389 -0.031364 5.20045 0.416553 0.308451 -0.815752 3.43202 2.7882e-014 -3.14984e-007 -6.64818e-015 -1.33984 -0.942851 4.04577e-011 0.310207 7.53059 -0.976304 -1.03111 -5.48941 0.514163 0.0473869 -13.2251 1.43125 -0.584472 -7.37543 -1.61389 0.0264147 5.6804 -0.452699 -0.308451 -0.815751 3.43202 1.48448e-014 -4.50574e-007 -2.47166e-014 -1.05863e-008 1.05262 -1.01571e-009 -0.336211 0.0383525 0.000112527 5.43527e-009 2.01813 -7.57855e-008 -1.17129e-014 -2.4549e-009 1.30276e-011 -2.55455e-009 2.01813 -7.7843e-008 -5.33592e-008 -2.45509e-009 -8.70684e-012 1.05262 2.25701 6.74153e-008 -0.557037 -0.0662851 -0.0598338 1.59242 -0.163556 -0.172858 -49.2567 10.9361 -4.8914 4.24537 -1.87801 -0.325368 -1.49562 -8.62116 -3.49245 2.98616 -1.30581 0.326132 -0.207941 -2.21792 0.966484 0.707167 -0.296377 0.777353 -8.21849e-006 2.76184e-006 4.48956e-007 0.248522 -0.159516 0.331579 1.63916e-005 2.52742e-006 2.07847e-006 0.259194 -0.254061 0.227961 4.78525e-006 5.4101e-006 -4.78484e-007 0.226667 -0.258213 0.206782 -3.88676e-005 -3.10128e-006 -6.54931e-006 1.48444 -0.354188 0.611987 -8.21849e-006 2.76184e-006 4.48956e-007 0.504725 -0.451988 0.0493911 1.63916e-005 2.52742e-006 2.07847e-006 0.296443 -0.265512 0.0299126 4.78525e-006 5.4101e-006 -4.78484e-007 0.19765 -0.217278 0.0208596 -3.88676e-005 -3.10128e-006 -6.54931e-006 1.48537 -0.317031 0.212679 -8.21849e-006 2.76184e-006 4.48956e-007 0.672059 -0.620935 0.0176345 1.63916e-005 2.52742e-006 2.07847e-006 0.264033 -0.321119 0.00884254 4.78525e-006 5.4101e-006 -4.78484e-007 0.180854 -0.241264 0.00658412 -3.88676e-005 -3.10128e-006 -6.54931e-006 1.48599 -0.345214 -0.172738 -8.21849e-006 2.76184e-006 4.48956e-007 0.522196 -0.611354 0.0123873 1.63916e-005 2.52742e-006 2.07847e-006 0.273492 -0.359549 0.00739127 4.78525e-006 5.4101e-006 -4.78484e-007 0.175076 -0.230163 0.00473116 -3.88676e-005 -3.10128e-006 -6.54931e-006 1.45006 -0.450851 -0.482263 -8.21849e-006 2.76184e-006 4.48956e-007 0.289756 -0.353117 -0.0298237 1.63916e-005 2.52742e-006 2.07847e-006 0.271225 -0.36969 -0.0280321 4.78525e-006 5.4101e-006 -4.78484e-007 0.192972 -0.263027 -0.0199441 -3.88676e-005 -3.10128e-006 -6.54931e-006 -1.05263 2.257 1.29813e-007 -5.33593e-008 -2.45509e-009 4.32072e-012 -1.59242 -0.16355 -0.172859 51.1128 11.3954 0.693244 -4.24536 -1.87802 -0.325404 5.87431 -12.7663 11.9479 -2.98615 -1.30581 0.326125 -0.254074 1.96917 0.869817 -0.707168 -0.296375 0.777354 1.1673e-005 -1.16712e-005 -2.26891e-005 -0.248522 -0.159518 0.33158 -1.70955e-005 -7.20831e-006 4.18758e-006 -0.259195 -0.254063 0.227961 -1.52058e-005 -1.06114e-005 6.10637e-006 -0.226667 -0.258211 0.206783 -3.03593e-005 -3.07131e-006 6.50214e-007 -1.48444 -0.35419 0.611987 1.1673e-005 -1.16712e-005 -2.26891e-005 -0.504725 -0.451986 0.0493911 -1.70955e-005 -7.20831e-006 4.18758e-006 -0.296442 -0.265512 0.0299127 -1.52058e-005 -1.06114e-005 6.10637e-006 -0.197651 -0.21728 0.0208596 -3.03593e-005 -3.07131e-006 6.50214e-007 -1.48537 -0.317029 0.212679 1.1673e-005 -1.16712e-005 -2.26891e-005 -0.672061 -0.620938 0.0176345 -1.70955e-005 -7.20831e-006 4.18758e-006 -0.264031 -0.321119 0.00884268 -1.52058e-005 -1.06114e-005 6.10637e-006 -0.180854 -0.241264 0.006584 -3.03593e-005 -3.07131e-006 6.50214e-007 -1.48599 -0.345215 -0.172738 1.1673e-005 -1.16712e-005 -2.26891e-005 -0.522197 -0.611355 0.0123875 -1.70955e-005 -7.20831e-006 4.18758e-006 -0.273489 -0.359549 0.0073912 -1.52058e-005 -1.06114e-005 6.10637e-006 -0.175076 -0.230165 0.00473138 -3.03593e-005 -3.07131e-006 6.50214e-007 -1.45006 -0.450851 -0.482263 1.1673e-005 -1.16712e-005 -2.26891e-005 -0.289757 -0.353119 -0.0298239 -1.70955e-005 -7.20831e-006 4.18758e-006 -0.271225 -0.36969 -0.028032 -1.52058e-005 -1.06114e-005 6.10637e-006 -0.192971 -0.263025 -0.0199442 -3.03593e-005 -3.07131e-006 6.50214e-007 -9.85816e-009 2.01813 1.85412e-007 5.28716e-010 -8.01928e-009 4.36393e-011 2.25232e-009 3.0075 -2.78375e-007 -2.30229e-014 -2.4549e-009 2.60551e-011 
0.00181027 15.1791 0.00020931 -0.095183 0.0129612 -0.00104385 1.33984 -0.942849 3.18206e-010 -0.099588 6.88667 0.877984 1.03111 -5.48942 0.514163 0.00268998 -12.0976 -1.28879 0.584473 -7.37543 -1.61389 -0.0302392 5.19647 0.415947 0.308451 -0.815752 3.43202 2.78819e-014 -3.14984e-007 -6.64811e-015 -1.33984 -0.942849 4.04579e-011 0.290223 7.46625 -0.965039 -1.03111 -5.48941 0.514162 0.0422141 -13.1127 1.41688 -0.584472 -7.37543 -1.61389 0.0279287 5.63224 -0.449346 -0.308451 -0.815751 3.43202 1.48445e-014 -4.50574e-007 -2.47159e-014 -1.05883e-008 1.05262 -1.01571e-009 -0.340631 0.0383525 0.00115703 5.43527e-009 2.01813 -7.57855e-008 0.00800151 -2.4549e-009 1.30276e-011 -2.55455e-009 2.01813 -7.7843e-008 0.00800152 -2.45509e-009 -8.70701e-012 1.05263 2.25701 6.74153e-008 -0.557037 -0.0662851 -0.0598338 1.59242 -0.163555 -0.172858 -49.2457 10.9335 -4.88622 4.24538 -1.878 -0.325368 -1.50366 -8.61821 -3.59034 2.98615 -1.30581 0.326134 -0.210969 -2.25164 0.981076 0.707167 -0.296377 0.777354 -8.21965e-006 2.76183e-006 4.48944e-007 0.248522 -0.159516 0.33158 1.63913e-005 2.52741e-006 2.07845e-006 0.259194 -0.25406 0.227961 -8.84729e-006 5.41013e-006 -4.78456e-007 0.226667 -0.258213 0.206783 -3.7912e-005 -3.10128e-006 -6.54931e-006 1.48444 -0.354188 0.611987 -8.21965e-006 2.76183e-006 4.48944e-007 0.504725 -0.451989 0.0493911 1.63913e-005 2.52741e-006 2.07845e-006 0.296442 -0.265512 0.0299126 -8.84729e-006 5.41013e-006 -4.78456e-007 0.19765 -0.217277 0.0208596 -3.7912e-005 -3.10128e-006 -6.54931e-006 1.48537 -0.317031 0.212679 -8.21965e-006 2.76183e-006 4.48944e-007 0.672059 -0.620935 0.0176345 1.63913e-005 2.52741e-006 2.07845e-006 0.264032 -0.321119 0.00884255 -8.84729e-006 5.41013e-006 -4.78456e-007 0.180854 -0.241264 0.00658412 -3.7912e-005 -3.10128e-006 -6.54931e-006 1.48599 -0.345215 -0.172738 -8.21965e-006 2.76183e-006 4.48944e-007 0.522196 -0.611355 0.0123873 1.63913e-005 2.52741e-006 2.07845e-006 0.273491 -0.359549 0.00739128 -8.84729e-006 5.41013e-006 -4.78456e-007 0.175076 -0.230163 0.00473117 -3.7912e-005 -3.10128e-006 -6.54931e-006 1.45006 -0.450852 -0.482263 -8.21965e-006 2.76183e-006 4.48944e-007 0.289756 -0.353117 -0.0298237 1.63913e-005 2.52741e-006 2.07845e-006 0.271225 -0.36969 -0.0280321 -8.84729e-006 5.41013e-006 -4.78456e-007 0.192972 -0.263027 -0.0199441 -3.7912e-005 -3.10128e-006 -6.54931e-006 -1.05263 2.257 1.29813e-007 -5.33593e-008 -2.45509e-009 4.32055e-012 -1.59242 -0.163551 -0.172859 51.1226 11.3975 0.710251 -4.24536 -1.87803 -0.325404 5.85552 -12.7847 11.8426 -2.98615 -1.30581 0.326125 -0.258763 2.00657 0.886368 -0.707168 -0.296375 0.777354 1.16749e-005 -1.16712e-005 -2.26891e-005 -0.248522 -0.159518 0.33158 -1.66035e-005 -7.20832e-006 4.18758e-006 -0.259195 -0.254063 0.227961 -1.58361e-005 -1.06114e-005 6.10637e-006 -0.226667 -0.258211 0.206783 -2.98046e-005 -3.07133e-006 6.5022e-007 -1.48444 -0.354191 0.611987 1.16749e-005 -1.16712e-005 -2.26891e-005 -0.504725 -0.451986 0.0493911 -1.66035e-005 -7.20832e-006 4.18758e-006 -0.296442 -0.265512 0.0299127 -1.58361e-005 -1.06114e-005 6.10637e-006 -0.197651 -0.21728 0.0208598 -2.98046e-005 -3.07133e-006 6.5022e-007 -1.48537 -0.317029 0.212679 1.16749e-005 -1.16712e-005 -2.26891e-005 -0.67206 -0.620938 0.0176347 -1.66035e-005 -7.20832e-006 4.18758e-006 -0.264032 -0.32112 0.00884268 -1.58361e-005 -1.06114e-005 6.10637e-006 -0.180854 -0.241264 0.00658401 -2.98046e-005 -3.07133e-006 6.5022e-007 -1.48599 -0.345215 -0.172738 1.16749e-005 -1.16712e-005 -2.26891e-005 -0.522198 -0.611355 0.0123875 -1.66035e-005 -7.20832e-006 4.18758e-006 -0.273489 -0.359549 0.00739121 -1.58361e-005 -1.06114e-005 6.10637e-006 -0.175076 -0.230165 0.00473139 -2.98046e-005 -3.07133e-006 6.5022e-007 -1.45006 -0.450851 -0.482263 1.16749e-005 -1.16712e-005 -2.26891e-005 -0.289757 -0.353119 -0.0298239 -1.66035e-005 -7.20832e-006 4.18758e-006 -0.271226 -0.36969 -0.028032 -1.58361e-005 -1.06114e-005 6.10637e-006 -0.192971 -0.263025 -0.0199442 -2.98046e-005 -3.07133e-006 6.5022e-007 -9.85816e-009 2.01813 1.85412e-007 5.28688e-010 -8.01895e-009 4.364e-011 2.25232e-009 3.0075 -2.78375e-007 -2.31886e-014 -2.45486e-009 2.60568e-011 
